<svg width="42" height="30" viewBox="0 0 42 30" fill="none" xmlns="http://www.w3.org/2000/svg">
<path fill-rule="evenodd" clip-rule="evenodd" d="M0.12146 4.65009C0.12146 2.17934 2.21171 0.254883 4.69091 0.254883H37.3091C39.7884 0.254883 41.8785 2.17936 41.8785 4.65009V25.3501C41.8785 27.8207 39.7884 29.7453 37.3091 29.7453H4.69091C2.21169 29.7453 0.12146 27.8208 0.12146 25.3501V4.65009ZM4.69091 2.14529C3.16689 2.14529 2.01187 3.31008 2.01187 4.65009V25.3501C2.01187 26.6901 3.16691 27.8549 4.69091 27.8549H37.3091C38.8331 27.8549 39.9881 26.6901 39.9881 25.3501V4.65009C39.9881 3.31006 38.8331 2.14529 37.3091 2.14529H4.69091Z" fill="black"/>
<path fill-rule="evenodd" clip-rule="evenodd" d="M0.12146 10.4C0.12146 9.87802 0.544643 9.45483 1.06667 9.45483H40.9333C41.4554 9.45483 41.8785 9.87802 41.8785 10.4C41.8785 10.9221 41.4554 11.3452 40.9333 11.3452H1.06667C0.544643 11.3452 0.12146 10.9221 0.12146 10.4Z" fill="black"/>
</svg>
