<svg width="37" height="39" viewBox="0 0 37 39" fill="none" xmlns="http://www.w3.org/2000/svg">
<path fill-rule="evenodd" clip-rule="evenodd" d="M16.4187 1.32451C17.7731 0.765853 19.2935 0.765853 20.6479 1.32451L20.6479 1.32452L32.637 6.27006C34.9566 7.22686 36.3449 9.62204 36.0214 12.1104C36.0214 12.1105 36.0214 12.1105 36.0214 12.1105L35.0883 19.2965C34.3935 24.6461 31.6552 29.5193 27.447 32.8946L22.0029 37.2612L22.0028 37.2612C19.9756 38.8871 17.0911 38.8871 15.0638 37.2612L15.0638 37.2612L9.61956 32.8946L10.1924 32.1804L9.61955 32.8946C5.41143 29.5193 2.67307 24.6461 1.9783 19.2965L1.9783 19.2965L1.04505 12.1104C1.04505 12.1104 1.04505 12.1104 1.04505 12.1104C0.721878 9.62213 2.10992 7.22691 4.42951 6.27007L4.42951 6.27007L16.4187 1.32451L16.7792 2.1983L16.4187 1.32451ZM19.927 3.07208C19.0343 2.70388 18.0322 2.70388 17.1396 3.07209L5.15038 8.01764L4.78995 7.14385L5.15038 8.01764C3.62155 8.64828 2.70672 10.227 2.91972 11.867L2.91972 11.867L3.85297 19.0531C4.48483 23.9183 6.97526 28.3503 10.8024 31.4199L16.2465 35.7865C17.5827 36.8581 19.4839 36.8581 20.8201 35.7865L26.2642 31.4199C30.0913 28.3503 32.5817 23.9183 33.2136 19.0531L34.1468 11.867L34.1468 11.8668C34.36 10.227 33.4451 8.64832 31.9162 8.01764L31.9161 8.01763L19.927 3.07209C19.927 3.07208 19.927 3.07208 19.927 3.07208Z" fill="black"/>
<path fill-rule="evenodd" clip-rule="evenodd" d="M25.191 13.4635C25.6253 13.7531 25.7427 14.34 25.4531 14.7743L18.824 24.7181C17.9564 26.0194 16.1151 26.2018 15.0091 25.0958L10.5817 20.6684C10.2125 20.2992 10.2125 19.7008 10.5817 19.3316C10.9508 18.9625 11.5493 18.9625 11.9184 19.3316L16.3458 23.7591C16.6083 24.0215 17.0452 23.9782 17.251 23.6694L23.8802 13.7257C24.1698 13.2913 24.7566 13.174 25.191 13.4635Z" fill="black"/>
</svg>
