<svg width="37" height="42" viewBox="0 0 37 42" fill="none" xmlns="http://www.w3.org/2000/svg">
<path d="M2.83333 32.5L1.72554 31.4156L0.617722 32.5L1.72554 33.5843L2.83333 32.5ZM33.775 22.9166C33.775 22.0698 33.0734 21.3833 32.2083 21.3833C31.3432 21.3833 30.6417 22.0698 30.6417 22.9166H33.775ZM9.55888 23.7491L1.72554 31.4156L3.94112 33.5843L11.7745 25.9175L9.55888 23.7491ZM1.72554 33.5843L9.55888 41.251L11.7745 39.0823L3.94112 31.4156L1.72554 33.5843ZM2.83333 34.0333H22.4167V30.9666H2.83333V34.0333ZM22.4167 34.0333C28.6896 34.0333 33.775 29.0561 33.775 22.9166H30.6417C30.6417 27.3625 26.9591 30.9666 22.4167 30.9666V34.0333Z" fill="black"/>
<path d="M34.1667 9.49992L35.2746 10.5841L36.3823 9.49992L35.2746 8.4157L34.1667 9.49992ZM3.22501 19.0833C3.22501 19.9301 3.92643 20.6166 4.79167 20.6166C5.65691 20.6166 6.35834 19.9301 6.35834 19.0833H3.22501ZM27.4413 18.2508L35.2746 10.5841L33.0587 8.4157L25.2255 16.0824L27.4413 18.2508ZM35.2746 8.4157L27.4413 0.749023L25.2255 2.91747L33.0587 10.5841L35.2746 8.4157ZM34.1667 7.96659H14.5833V11.0333H34.1667V7.96659ZM14.5833 7.96659C8.31031 7.96659 3.22501 12.9437 3.22501 19.0833H6.35834C6.35834 14.6374 10.0408 11.0333 14.5833 11.0333V7.96659Z" fill="black"/>
</svg>
